<svg width="30" height="30" viewBox="0 0 30 30" fill="none" xmlns="http://www.w3.org/2000/svg">
<path d="M12.3423 14.0997C12.9648 13.7866 13.4355 13.4378 13.758 13.0609C14.3318 12.3821 14.615 11.482 14.615 10.3663C14.615 9.28057 14.3318 8.35237 13.7655 7.57418C12.8204 6.30658 11.2209 5.65778 8.95949 5.62402H0V23.9124H8.35381C9.29514 23.9124 10.1671 23.8318 10.9734 23.6668C11.7797 23.4999 12.4773 23.1942 13.0679 22.7479C13.593 22.3598 14.0318 21.8779 14.3806 21.3097C14.9319 20.4509 15.2075 19.4777 15.2075 18.3938C15.2075 17.3437 14.9656 16.4493 14.4856 15.7142C13.9999 14.9792 13.2873 14.441 12.3423 14.0997ZM3.69593 8.80053H7.73126C8.61821 8.80053 9.34952 8.89617 9.92331 9.08556C10.5871 9.3612 10.919 9.92188 10.919 10.7769C10.919 11.5439 10.6659 12.0802 10.1652 12.3821C9.66079 12.684 9.00636 12.8359 8.2038 12.8359H3.69593V8.80053ZM10.0771 20.4171C9.63079 20.6328 9.00261 20.7396 8.19817 20.7396H3.69593V15.8624H8.26005C9.05512 15.868 9.67392 15.973 10.1165 16.1699C10.904 16.5262 11.2959 17.1787 11.2959 18.1332C11.2959 19.2583 10.8909 20.0158 10.0771 20.4171Z" fill="#222D68"/>
<path d="M27.1169 6.47705H19.1719V8.75349H27.1169V6.47705Z" fill="#222D68"/>
<path d="M29.8771 15.4612C29.7121 14.4018 29.3483 13.4698 28.782 12.6654C28.1613 11.754 27.3738 11.0865 26.4156 10.6646C25.4611 10.2408 24.3867 10.0289 23.1903 10.0308C21.182 10.0308 19.5506 10.659 18.2887 11.9059C17.0304 13.1567 16.4004 14.9549 16.4004 17.2989C16.4004 19.7984 17.0961 21.6042 18.4949 22.7124C19.8882 23.8225 21.4971 24.3757 23.3235 24.3757C25.5343 24.3757 27.2538 23.7175 28.482 22.4049C29.2677 21.5761 29.7121 20.7604 29.8096 19.9597H26.1493C25.9374 20.3554 25.6918 20.6648 25.4105 20.8898C24.9005 21.3023 24.2367 21.5086 23.4228 21.5086C22.6484 21.5086 21.9921 21.3379 21.4446 20.9985C20.5407 20.4548 20.0682 19.5022 20.0082 18.1464H29.9971C30.0121 16.9782 29.9746 16.08 29.8771 15.4612ZM20.0982 15.8119C20.2295 14.9324 20.5482 14.2349 21.0545 13.7192C21.5608 13.2054 22.2771 12.9466 23.1941 12.9448C24.0398 12.9448 24.7467 13.1867 25.3224 13.6723C25.8905 14.1617 26.2112 14.8724 26.2768 15.8119H20.0982Z" fill="#222D68"/>
</svg>
