<svg width="31" height="31" viewBox="0 0 31 31" fill="none" xmlns="http://www.w3.org/2000/svg">
<g clip-path="url(#clip0)">
<path d="M29.9702 10.1422L17.6128 4.10554C16.5475 3.57289 14.7365 3.57289 13.6712 4.10554L1.02978 10.1422C0.142039 10.5683 0 11.172 0 11.4916C0 11.8112 0.142039 12.3793 1.02978 12.8409L2.05956 13.3381V19.0196C1.42039 19.2682 0.958763 19.9074 0.958763 20.6176C0.958763 21.3278 1.42039 21.9669 2.02405 22.2155L0.426117 27.2934H4.90034L3.30241 22.2155C3.94158 21.9669 4.3677 21.3278 4.3677 20.6176C4.3677 19.8719 3.90607 19.2682 3.2669 19.0196V13.9417L5.14891 14.865V22.251C5.14891 22.3575 5.18442 22.4641 5.25544 22.5706C5.43299 22.7837 8.73539 27.2934 15.4822 27.2934C22.2291 27.2934 25.5315 22.7481 25.6735 22.5706C25.7446 22.4641 25.7801 22.3575 25.7801 22.251V14.9005L29.9702 12.8409C30.858 12.4148 31 11.8112 31 11.4916C30.9645 11.172 30.858 10.5683 29.9702 10.1422ZM24.6438 22.0735C24.0756 22.7837 21.0218 26.1926 15.4822 26.1926C9.94273 26.1926 6.88889 22.7837 6.32073 22.0735V15.3621L13.6712 18.8776C14.2039 19.1262 14.9141 19.2682 15.6243 19.2682C16.37 19.2682 17.0802 19.1262 17.6128 18.8421L24.6438 15.3976V22.0735ZM29.4731 11.8467L25.2119 13.9417C25.0344 13.9417 24.8923 14.0128 24.8213 14.1548L17.1157 17.8833C16.37 18.2739 14.9141 18.2739 14.1329 17.8833L4.65178 13.3381L15.5533 12.0597C15.8729 12.0242 16.0859 11.7401 16.0504 11.4561C16.0149 11.1365 15.7308 10.9234 15.4467 10.9589L2.80527 12.4503L1.52692 11.8467C1.20733 11.7046 1.13631 11.5271 1.13631 11.5271C1.13631 11.4916 1.20733 11.3495 1.52692 11.2075L14.1684 5.13532C14.559 4.95777 15.0916 4.85124 15.6243 4.85124C16.1924 4.85124 16.7606 4.95777 17.1157 5.13532L29.4731 11.172C29.7927 11.314 29.8637 11.4561 29.8637 11.5271C29.8637 11.5271 29.7572 11.7046 29.4731 11.8467Z" fill="#222D68"/>
</g>
<defs>
<clipPath id="clip0">
<rect width="31" height="31" fill="white"/>
</clipPath>
</defs>
</svg>
