<svg width="34" height="28" viewBox="0 0 34 28" fill="none" xmlns="http://www.w3.org/2000/svg">
<path d="M30.6 0H3.4C2.50121 0.00462617 1.64077 0.375417 1.00682 1.03129C0.372867 1.68717 0.0169886 2.57477 0.0169999 3.5L0 24.5C0.00244723 25.4275 0.361446 26.3163 0.99854 26.9721C1.63563 27.6279 2.49902 27.9975 3.4 28H30.6C31.501 27.9975 32.3644 27.6279 33.0015 26.9721C33.6386 26.3163 33.9976 25.4275 34 24.5V3.5C33.9976 2.57252 33.6386 1.68374 33.0015 1.02791C32.3644 0.372077 31.501 0.00251921 30.6 0ZM30.6 7L17 15.75L3.4 7V3.5L17 12.25L30.6 3.5V7Z" fill="#222D68"/>
</svg>
