<svg width="30" height="30" viewBox="0 0 30 30" fill="none" xmlns="http://www.w3.org/2000/svg">
<path d="M26.25 13.125V9.375H24.375V13.125H20.625V15H24.375V18.75H26.25V15H30V13.125H26.25Z" fill="#222D68"/>
<path d="M9.375 13.125V16.875H14.6794C13.905 19.0575 11.82 20.625 9.375 20.625C6.27375 20.625 3.75 18.1012 3.75 15C3.75 11.8987 6.27375 9.375 9.375 9.375C10.7194 9.375 12.0131 9.85687 13.0181 10.7325L15.4819 7.905C13.7944 6.435 11.6269 5.625 9.375 5.625C4.20563 5.625 0 9.83063 0 15C0 20.1694 4.20563 24.375 9.375 24.375C14.5444 24.375 18.75 20.1694 18.75 15V13.125H9.375Z" fill="#222D68"/>
</svg>
