<svg width="26" height="25" viewBox="0 0 26 25" fill="none" xmlns="http://www.w3.org/2000/svg">
<path d="M6.37928 8.12012H0.983398V24.7089H6.37928V8.12012Z" fill="#222D68"/>
<path d="M21.0766 8.31466C21.0193 8.29656 20.965 8.27696 20.9047 8.26037C20.8323 8.24378 20.7599 8.23021 20.686 8.21814C20.3995 8.16084 20.0858 8.12012 19.7179 8.12012C16.572 8.12012 14.5768 10.4079 13.9193 11.2916V8.12012H8.52344V24.7089H13.9193V15.6605C13.9193 15.6605 17.9971 9.98108 19.7179 14.1524C19.7179 17.8758 19.7179 24.7089 19.7179 24.7089H25.1122V13.5145C25.1122 11.0081 23.3945 8.9194 21.0766 8.31466Z" fill="#222D68"/>
<path d="M3.62252 5.85833C5.08007 5.85833 6.26165 4.67675 6.26165 3.2192C6.26165 1.76165 5.08007 0.580078 3.62252 0.580078C2.16497 0.580078 0.983398 1.76165 0.983398 3.2192C0.983398 4.67675 2.16497 5.85833 3.62252 5.85833Z" fill="#222D68"/>
</svg>
