<svg width="21" height="20" viewBox="0 0 21 20" fill="none" xmlns="http://www.w3.org/2000/svg">
<path d="M10.4966 0C8.67382 0.00851928 6.88431 0.497619 5.30269 1.41958C3.72107 2.34154 2.40137 3.66487 1.47235 5.26046C0.543321 6.85604 0.0367028 8.6694 0.00192035 10.5236C-0.0328621 12.3778 0.405379 14.2095 1.27389 15.84V13.004C1.2781 12.4852 1.45553 11.9832 1.77706 11.5805C1.75037 11.2976 1.73703 11.0132 1.73703 10.7273C1.74153 8.36071 2.66437 6.09165 4.3048 4.41373C5.94523 2.73581 8.17053 1.78478 10.4966 1.76752C11.7283 1.77229 12.9452 2.04005 14.0687 2.55347C15.1922 3.0669 16.1972 3.81455 17.0188 4.74807C17.8404 5.68159 18.4602 6.78018 18.8382 7.97277C19.2162 9.16536 19.3438 10.4254 19.213 11.6713C19.4934 12.0573 19.6461 12.524 19.649 13.004V15.9842C20.5486 14.3546 21.0142 12.5143 20.9997 10.6453C20.9852 8.77643 20.4911 6.94377 19.5664 5.32884C18.6417 3.71391 17.3185 2.37272 15.7277 1.43805C14.1368 0.503391 12.3336 0.00767842 10.4966 0Z" fill="#222D68"/>
<path d="M1.92071 12.5468C1.87576 12.6951 1.85278 12.8495 1.85254 13.0047V17.0104C1.85254 18.2468 3.29985 19.2491 5.08532 19.2491H6.44606V10.7666H5.08532C3.52655 10.7666 2.22586 11.5301 1.92071 12.5468Z" fill="#222D68"/>
<path d="M19.0697 17.0104V13.0048C19.0693 12.9093 19.0602 12.814 19.0426 12.7202C18.8403 11.6193 17.4828 10.7666 15.8369 10.7666H14.4756V19.2497H15.8369C17.6229 19.2492 19.0697 18.2468 19.0697 17.0104Z" fill="#222D68"/>
</svg>
