<svg width="25" height="25" viewBox="0 0 25 25" fill="none" xmlns="http://www.w3.org/2000/svg">
<path d="M18.2327 0H6.76726C3.03573 0 0 3.03573 0 6.76726V18.2329C0 21.9642 3.03573 25 6.76726 25H18.2329C21.9642 25 25 21.9642 25 18.2329V6.76726C25 3.03573 21.9642 0 18.2327 0ZM12.5 19.3357C8.73068 19.3357 5.66424 16.2693 5.66424 12.5C5.66424 8.73068 8.73068 5.66424 12.5 5.66424C16.2693 5.66424 19.3357 8.73068 19.3357 12.5C19.3357 16.2693 16.2693 19.3357 12.5 19.3357ZM19.4992 7.27633C18.3853 7.27633 17.4793 6.37034 17.4793 5.25645C17.4793 4.14256 18.3853 3.23638 19.4992 3.23638C20.6131 3.23638 21.5192 4.14256 21.5192 5.25645C21.5192 6.37034 20.6131 7.27633 19.4992 7.27633Z" fill="#222D68"/>
<path d="M12.5 7.12891C9.53905 7.12891 7.12988 9.53788 7.12988 12.499C7.12988 15.46 9.53905 17.8692 12.5 17.8692C15.4612 17.8692 17.8701 15.46 17.8701 12.499C17.8701 9.53788 15.4612 7.12891 12.5 7.12891Z" fill="#222D68"/>
<path d="M19.4996 4.70166C19.194 4.70166 18.9453 4.95038 18.9453 5.25593C18.9453 5.56149 19.194 5.81021 19.4996 5.81021C19.8053 5.81021 20.0541 5.56168 20.0541 5.25593C20.0541 4.95019 19.8053 4.70166 19.4996 4.70166Z" fill="#222D68"/>
</svg>
