<svg width="22" height="22" viewBox="0 0 22 22" fill="none" xmlns="http://www.w3.org/2000/svg">
<path d="M16.045 0H5.9552C2.67145 0 0 2.67144 0 5.95519V16.0448C0 19.3285 2.67145 22 5.9552 22H16.045C19.3286 22 22 19.3285 22 16.0448V5.95519C22 2.67144 19.3286 0 16.045 0ZM20.7103 16.0448C20.7103 18.6173 18.6174 20.7102 16.0448 20.7102H5.9552C3.38261 20.7102 1.28973 18.6173 1.28973 16.0448V15.9882L4.98891 12.5829C5.09364 12.4866 5.2578 12.4866 5.36253 12.5828L8.1931 15.1814C8.52141 15.4828 8.96402 15.63 9.40781 15.5859C9.85143 15.5416 10.2561 15.3093 10.5184 14.9487L15.5136 8.08029C15.5799 7.98932 15.6707 7.97035 15.7188 7.96716C15.767 7.96431 15.8595 7.97086 15.937 8.0526L20.7101 13.0821V16.0448H20.7103ZM20.7103 11.2086L16.8726 7.16486C16.5515 6.82648 16.1009 6.6499 15.6348 6.68028C15.1693 6.71067 14.745 6.94448 14.4706 7.32179L9.47528 14.1902C9.412 14.2772 9.32539 14.298 9.2794 14.3025C9.23358 14.3071 9.14462 14.304 9.0654 14.2312L6.23483 11.6328C5.64015 11.0866 4.70927 11.0874 4.11543 11.6341L1.28973 14.2352V5.95519C1.28973 3.38261 3.38261 1.28973 5.9552 1.28973H16.045C18.6174 1.28973 20.7103 3.38261 20.7103 5.95519V11.2086Z" fill="#222D68"/>
</svg>
