<svg width="23" height="23" viewBox="0 0 23 23" fill="none" xmlns="http://www.w3.org/2000/svg">
<path d="M22.8677 6.76846L18.056 0.27269C17.9287 0.10125 17.728 0 17.5144 0C17.3009 0 17.1 0.10125 16.9731 0.27269L12.1614 6.76846C12.0099 6.97289 11.9866 7.24541 12.1012 7.47265C12.2156 7.69989 12.4484 7.84343 12.7029 7.84343H14.4348V11.1003C14.0956 10.9255 13.7115 10.8262 13.3042 10.8262H12.1014C10.7349 10.8262 9.62328 11.9378 9.62328 13.3042V14.7089C9.28409 14.5342 8.89979 14.4348 8.49269 14.4348H7.2898C5.92337 14.4348 4.81173 15.5467 4.81173 16.9131V18.3176C4.47236 18.143 4.08824 18.0435 3.68114 18.0435H2.47807C1.11164 18.0435 0 19.1553 0 20.5218V22.3262C0 22.6984 0.301643 23 0.673828 23H19.9202C20.2924 23 20.594 22.6984 20.594 22.3262V7.84343H22.3262C22.5806 7.84343 22.8135 7.69989 22.9279 7.47265C23.0425 7.24541 23.0191 6.97289 22.8677 6.76846ZM1.34766 20.5218C1.34766 19.8985 1.85478 19.3912 2.47807 19.3912H3.68096C4.30443 19.3912 4.81155 19.8985 4.81155 20.5218V21.6523H1.34766V20.5218ZM6.15921 20.5218V16.9131C6.15921 16.2896 6.66634 15.7825 7.2898 15.7825H8.49269C9.11598 15.7825 9.62311 16.2896 9.62311 16.9131V21.6523H6.15921V20.5218ZM10.9709 16.9131V13.3042C10.9709 12.681 11.4781 12.1738 12.1014 12.1738H13.3042C13.9275 12.1738 14.4348 12.681 14.4348 13.3042V21.6523H10.9709V16.9131ZM19.9202 6.49577C19.548 6.49577 19.2464 6.79742 19.2464 7.1696V21.6523H15.7825V7.1696C15.7825 6.79742 15.4807 6.49577 15.1087 6.49577H14.0405L17.5144 1.80582L20.9885 6.49577H19.9202Z" fill="#222D68"/>
</svg>
