<svg width="21" height="17" viewBox="0 0 21 17" fill="none" xmlns="http://www.w3.org/2000/svg">
<path d="M20.6379 0H0.362122C0.266081 0 0.173974 0.0389458 0.106063 0.10827C0.038152 0.177594 0 0.271617 0 0.369656L0 16.6303C0 16.7284 0.038152 16.8224 0.106063 16.8917C0.173974 16.9611 0.266081 17 0.362122 17H20.6379C20.7337 17 20.8255 16.9613 20.8934 16.8923C20.9613 16.8233 20.9996 16.7297 21 16.6319V0.369656C21 0.271617 20.9618 0.177594 20.8939 0.10827C20.826 0.0389458 20.7339 0 20.6379 0ZM3.62071 16.2607H0.724244V12.9359H3.62071V16.2607ZM3.62071 12.195H0.724244V8.8707H3.62071V12.195ZM3.62071 8.1293H0.724244V4.80501H3.62071V8.1293ZM3.62071 4.0636H0.724244V0.739312H3.62071V4.0636ZM13.229 8.81057L9.24615 11.3982C9.19128 11.4337 9.12804 11.4536 9.06307 11.4556C8.9981 11.4576 8.9338 11.4418 8.8769 11.4097C8.82001 11.3776 8.77262 11.3305 8.73972 11.2732C8.70682 11.216 8.68961 11.1508 8.6899 11.0845V5.90822C8.68955 5.84179 8.70674 5.77649 8.73967 5.71919C8.7726 5.66189 8.82005 5.61471 8.87702 5.5826C8.934 5.5505 8.9984 5.53466 9.06344 5.53676C9.12849 5.53886 9.19178 5.55881 9.24666 5.59451L13.2295 8.18158C13.2808 8.21506 13.323 8.26117 13.3522 8.31568C13.3815 8.37018 13.3968 8.43132 13.3968 8.49346C13.3968 8.5556 13.3815 8.61675 13.3522 8.67125C13.323 8.72576 13.2808 8.77187 13.2295 8.80535L13.229 8.81057ZM20.2758 16.2607H17.3793V12.9359H20.2758V16.2607ZM20.2758 12.195H17.3793V8.8707H20.2758V12.195ZM20.2758 8.1293H17.3793V4.80501H20.2758V8.1293ZM20.2758 4.0636H17.3793V0.739312H20.2758V4.0636Z" fill="#222D68"/>
</svg>
