<svg width="26" height="26" viewBox="0 0 26 26" fill="none" xmlns="http://www.w3.org/2000/svg">
<path d="M24.1895 5.69365H19.3415V2.99808C19.3415 1.93306 18.4729 1.06641 17.4053 1.06641H8.49316C7.42557 1.06641 6.55693 1.93306 6.55693 2.99808V5.69365H1.81047C0.812103 5.69365 0 6.50595 0 7.50412V23.1231C0 24.1215 0.812103 24.9336 1.81047 24.9336H24.1895C25.1879 24.9336 26 24.1215 26 23.1231V7.50412C26 6.50595 25.1879 5.69365 24.1895 5.69365ZM8.08037 2.99808C8.08037 2.77293 8.26544 2.58984 8.49316 2.58984H17.4053C17.6328 2.58984 17.8181 2.77293 17.8181 2.99808V5.69365H8.08037V2.99808ZM1.81047 7.21709H24.1895C24.3478 7.21709 24.4766 7.34583 24.4766 7.50412V12.736H21.6477V11.9705C21.6477 11.1633 20.9911 10.5068 20.1842 10.5068H17.8815C17.0744 10.5068 16.418 11.1633 16.418 11.9705V12.736H9.48042V11.9705C9.48042 11.1633 8.82384 10.5068 8.01689 10.5068H5.71428C4.90733 10.5068 4.25075 11.1633 4.25075 11.9705V12.736H1.52344V7.50412C1.52344 7.34583 1.65218 7.21709 1.81047 7.21709ZM17.9415 12.0302H20.1243V15.9763H17.9415V12.0302ZM5.77419 12.0302H7.95699V15.9763H5.77419V12.0302ZM24.1895 23.4102H1.81047C1.65218 23.4102 1.52344 23.2814 1.52344 23.1231V14.2594H4.25075V16.0362C4.25075 16.8431 4.90733 17.4997 5.71428 17.4997H8.01689C8.82404 17.4997 9.48042 16.8431 9.48042 16.0362V14.2594H16.4178V16.0362C16.4178 16.8431 17.0744 17.4997 17.8815 17.4997H20.1842C20.9911 17.4997 21.6477 16.8431 21.6477 16.0362V14.2594H24.4766V23.1231C24.4766 23.2814 24.3478 23.4102 24.1895 23.4102Z" fill="#222D68"/>
</svg>
